<?xml version="1.0" encoding="UTF-8"?>
<svg version="1.1" viewBox="0 0 2048 1656" width="822" height="665" xmlns="http://www.w3.org/2000/svg">
<path transform="translate(1129,358)" d="m0 0 15 1 24 4 47 10 51 11 45 9 38 8 30 6 34 7 29 6 21 5 19 3 25 3-2 16-14 55-8 30-7 29-16 58-6 27-17 61-4 14-7 28-7 24-5 20-9 27-3 4-5-1-4-6-7-16-8-13-9-16-15-24-18-30-6-11-7-9-5-3-6 2-19 11-14 9-23 14-15 10-20 12-16 10-11 8-19 12-20 12-11 7-21 14-29 17-21 13-18 12-23 14-20 13-22 14-17 11-22 14-21 13-15 10-24 15-17 11-19 12-21 13-19 12-27 16-30 14-20 6-19 4-10 1h-40l-18-2-20-5-20-7-22-11-16-10-15-11-11-9-18-18-12-16-9-15-15-29-10-30-4-21-1-9-1-27 1-22 3-23 5-19 7-19 12-25 12-19 12-16 9-10 11-11 11-9 15-11 18-10 16-8 15-6 19-5 22-3 12-1h34l15 2 2-11 6-21 13-40 14-38 6-18 4-5 3-1h395l10 3v4l-19 12-23 14-23 15-36 22-9 3-43 1h-47l-136-1-19-1-9 18-11 32-6 16-9 27-6 15-12 36-10 29-10 30-7 19-12 36-8 21-9 20-9 10-10 4-12 1-12-2-10-5-5-5-5-8-2-6v-15l7-25 4-11 10-30 13-36 5-15 5-17v-3h-24l-15 3-19 7-16 8-11 7-11 9-12 12-8 10-10 15-7 12-7 22-4 19-1 9v21l3 19 9 27 9 17 10 14 12 13 5 5 10 9 15 10 15 7 16 6 16 3 21 1 26-2 14-3 25-12 14-8 28-17 21-13 16-10 16-11 15-10 21-13 40-25 19-12 22-13 14-8 17-11 22-14 10-7 19-12 16-10 17-11 12-8 23-15 11-7 14-9 42-26 38-24 18-12 24-15 19-12 30-20 13-8 16-9 4 1 9 12 16 33 5 3 3-3 6-15 13-51 6-21 5-19 5-16 2-10v-10l-8-3-66-13-17-4-27-5-17-5-6-2 3 13 8 14 10 15 4 10v7l-10 9-23 14-32 21-25 16-17 11-22 14-21 13-15 10-38 24-33 22-18 11-20 13-25 16-22 14-20 13-30 18-19 12-25 16-26 17-15 9-17 9h-1l-4-29-5-15-11-20-12-16-8-14-1-3v-10l9-27 7-23 5-5 5-2h7l26 26 8 10 11 12 4 5 4-2 7-6 21-14 32-19 14-9 26-16 25-16 17-12 12-8 20-13 25-15 23-15 22-14 28-17 11-8 27-18 13-7 6-5 2-4-1-5-11-18-17-28-17-29-12-18-9-15-6-8-4-7 1-4z" fill="#A7CD61"/>
<path transform="translate(1129,358)" d="m0 0 15 1 24 4 47 10 51 11 45 9 38 8 30 6 34 7 29 6 21 5 19 3 25 3-2 16-14 55-8 30-7 29-16 58-6 27-17 61-4 14-7 28-7 24-5 20-9 27-3 4-5-1-4-6-7-16-8-13-9-16-15-24-18-30-6-11-7-9-5-3-6 2-19 11-14 9-23 14-15 10-20 12-16 10-11 8-19 12-20 12-11 7-21 14-29 17-21 13-18 12-23 14-20 13-22 14-17 11-22 14-21 13-15 10-24 15-17 11-19 12-21 13-19 12-27 16-30 14-20 6-19 4-10 1h-40l-18-2-20-5-9-3v-1l8 1 8 2 19 3 8 2 10 1h19l15-2 20-4 22-4 17-8 7-3 10-4 13-9 13-7 8-6 11-6 10-8 13-7 10-8 10-5 8-6 16-9 7-6 13-7 9-7 13-7 7-6 14-7 3-1v-2l9-6 13-8 11-7 10-6 8-6 7-2v-2l5-3 6-5 14-7 7-6 14-9 8-7 14-7 7-6 10-3 12-10 10-4 12-10h3v-2l10-6 7-6 12-6 8-7 15-8 8-6 5-3 7-2v-2l9-7 14-7 8-7 10-5 12-9 11-6 4-3h2v-2l8-4 15-5 5-3h5l9 7 5 5 5 6 5 12 9 14 9 16 5 7 6 12 6 10 8 16v2h2l4 9 2 6 7-1 2-5 5-11 4-9 2-17 2-15 6-17 4-14 4-23 6-14 5-29 5-16 4-10 3-21 4-18 4-8 3-15v-10l2-17 5-15 4-13 1-11 3-18-2-4-3-5v-2h-4v3h3l2 9v17l-5 18-4-4-1-3 4-13 2-4 1-4h-2l-1-6h-4l-1 3-5 2h-3l-4 7-3 6-2 7-5 2v4l-6 2-2 3-3-1v-2h-6l1-9 3-9h2l2-4 1 1 1-2 5 2 1-7-1-3-5-2-7-6-6-2-1 2-2-2 1 7 3 12v12l-2 13-2 4-2 10-1 3h-3l-1 6-4 8-5 22-7 14-5 31-3 10h-2l-2 4-5 1 7-17 13-51 6-21 5-19 5-16 2-10v-10l-8-3-66-13-17-4-27-5-17-5-6-2 3 13 8 14 10 15 4 10v7l-10 9-23 14-32 21-25 16-17 11-22 14-21 13-15 10-38 24-33 22-18 11-20 13-25 16-22 14-20 13-30 18-19 12-25 16-26 17-15 9-17 9h-1l-4-29-5-15-11-20-12-16-8-14-1-3v-10l9-27 7-23 5-5 5-2h7l26 26 8 10 11 12 4 5 4-2 7-6 21-14 32-19 14-9 26-16 25-16 17-12 12-8 20-13 25-15 23-15 22-14 28-17 11-8 27-18 13-7 6-5 2-4-1-5-11-18-17-28-17-29-12-18-9-15-6-8-4-7 1-4z" fill="#C1E276"/>
<path transform="translate(1475,649)" d="m0 0 4 2 11 9 14 12 10 10 7 8 11 13 12 19 8 16 8 19 6 21 5 25 2 17v29l-2 17-7 31-6 20-10 22-10 16-12 16-12 13-19 19-17 13-18 11-25 12-16 5-23 6-16 2-14 1h-16l-19-2-25-6-17-6-31-14-15-10-13-10-12-11-18-18-13-18-10-17-11-23-7-19-5-16-3-22-1-10v-27l3-6 5-4 18-11 9-6 11-7 17-11 13-10h3l1 3v9l-6 24-2 14v31l5 23 8 21 10 18 9 12 12 13 11 9 14 10 21 11 21 6 13 2h30l19-3 18-6 19-9 14-10 13-11 9-10 10-15 8-16 6-14 4-15 3-25v-12l-2-22-3-15-4-13-10-21-16-21-6-10-2-5 1-13 4-20 5-15 5-16z" fill="#88B050"/>
<path transform="translate(600,697)" d="m0 0 2 1-4 5-9 6-11 13-6 10h-2l-3 6h-2l-3 9-7 8-3 7-5 19-6 12-1 4-1 14v37l1 13 6 15 4 9 4 14 1 4h2v3h2l4 7 6 10 1 3h2v2h2l7 8 1 3h2v2h2v2l4 2 10 8 8 6 23 12 7 3 27 4 11 1 4 1h16l10-2 25-4 10-3 8-6 18-7 7-7 12-5 7-5h2v-2l9-5 10-6 8-6 12-6 3-1 2-4 10-5 9-5 8-6 12-6 8-7 14-7 7-6 14-7 6-5h2v-2l13-6h2v-2l8-6 9-4 7-4 4-5 14-5 5-4h2v-2l14-7 7-6 16-8 9-7 14-7 4-3h2v-2l11-6 6-5 4-4 12-4 6-4 5-5 8-4 6-1 10-6 6-3 7-2 12-6 3 1-13 9-13 7-10 6-6 2 12-4 4 1-3 3 9-3 4-1h3l10-4 15-7 8-4 20-7 16-4 10-4 5 2 1 1 2-2 1 3 4-1 1 2 8-4 3 1-10 6-5 5-10 6-7 5-4 5-7 3-14 7-2 4-15 8-9 8-7 3-5 3-5 5h-2v2l-11 5-10 8-12 6h-2l-1 3h-2v2l-6 4-16 8-3 1v2h-3v2l-7 3-8 6-9 6-5 3h-3v2h-2v2l-10 6-10 5-3 1-2 4-15 8-5 4h-2v2l-18 9v2l-7 5-10 5-11 9-12 6-8 7-14 7-3 1v2l-9 6-8 4-10 8-11 5-4 2-2 4-17 9-10 8-11 6-9 7-14 7-8 7-16 8-7 5-19 7-8 5-5 2-33 5-14 1h-28l-29-3-16-3-16-8-16-6-11-7-15-9v-2l-4-2-10-8-6-5v-2h-2l-12-12-6-8-14-19-7-11-9-20-5-12-6-23-5-12-2-9-1-16v-21l1-17 4-13 5-9 6-24 2-6h2v-4h2l2-4 4-6 7-11 5-4 4-2v4l-6 6-3 9 1 3-1 6h2v3l15-6 5-3 8-10 10-6 5-5h2v-3l7-2 2 1 1-2h3l1-4 1 3 7-8 10-8 5-3h2z" fill="#88B050"/>
<path transform="translate(1469,474)" d="m0 0h4l3 6 1-5h1l1 11-2 10-2 18-4 13-5 15-2 18v11l-3 13-5 11-3 15-3 21-7 18-4 20-3 17-6 14-5 28-6 17-3 9-2 15-2 17-9 20-3 5-5 2-3-3-5-11v-2h-2l-8-15-6-12-6-10-5-9-9-15-7-12-6-10-4-9-4-5-12-9-7 1-5 3-21 7v2l-11 7-9 5-11 8-11 6-8 7-14 7-4 4h-2v2l-14 7-11 8-11 6-8 7-14 7-7 6-5 3h-2v2l-7 4-8 7-11 5-11 9-10 3-10 8-14 7-9 8-13 8-7 6-12 6-7 6h-3v2l-12 6-7 6-13 7-10 7-12 7-4 2v2l-8 5-12 6-7 6-10 5-14 10-8 4h-2l-1 3-9 6-14 8-10 7-6 3-12 9-13 7-8 7-12 6-9 7-13 7-12 8-14 5-16 8-12 3-24 4-12 3-11 1h-19l-16-2-12-3-14-2-6-2-11-2-25-12-18-11-15-11-11-9-18-18-12-16-9-15-15-29-10-30-4-21-1-9-1-27 1-22 3-23 5-19 7-19 1 3-1 4 2-2-2 12-3 12-8 20-2 27v21l1 16 3 12 5 12 5 20 5 12 5 11 7 14 12 17 8 10 7 9 8 7v2h2v2l3 1v2l4 2 10 8 3 2v2l5 2 15 9 6 4 20 8 12 6 24 4 21 2h28l22-2 25-4 18-9 16-6 10-7 14-7 7-6 15-8 9-7 11-6 9-7 15-8 7-7 10-4 10-8 13-7 4-2v-2l12-7 8-4 8-7 10-5 13-10 14-7v-2l6-4 9-5h3v-2l12-8 10-5 5-5 17-9 3-1v-2h2v-2l11-6 8-6 9-6h4v-2h3v-2l16-9 6-3 3-1v-2l5-4 12-6 11-9 10-3v-2l5-3 5-5 5-3 5-2 11-9 12-6 5-5 4-3 12-5 5-5 8-6 10-6h2l2-4 5-4 3-2-8 4-2-1 1-2-5 2-1-2-2 1v-2l-6-1-15 6-17 4-17 7-15 7-16 7-3-1-9 4-3-1 3-3-6 1-9 3-2-2 10-3 15-9 11-6 5-4h-3l-6 4-4 2-9 2-13 8-7 1-4 1-1 2-4 3h-2l-2 4-8 4-10 4h-2l-2 4-5 4-9 5h-2v2l-7 5-10 4-8 6-6 4-14 7h-2l-2 4-8 5-6 3h-3v2l-7 5-14 5-4 5-11 6-6 3-5 4h-2v2l-9 4-6 2v2l-10 7-14 7-8 7-14 7-8 7-14 7-9 7-12 5-5 5-8 5-8 4-9 7-12 6-3 1v2l-13 8-9 4-8 7-16 6-10 7-20 4-21 3-2 1h-18l-6-1-29-4-11-3-27-15-10-8-9-7v-2h-2v-2h-2l-7-8-1-3h-2v-2h-2l-8-13-3-5v-2h-2v-3h-2l-5-13-3-11-6-12-2-9-1-10v-37l3-15 8-18 4-16 7-9v3l-5 9-1 4 1-1 5-8 9-16 9-11 5-7 7-5 7-8 9-5 8-7 9-4 10-4 7-4 15-4 17-2h10l8 3 4 3-24 1-15 3-19 7-16 8-11 7-11 9-12 12-8 10-10 15-7 12-7 22-4 19-1 9v21l3 19 9 27 9 17 10 14 12 13 5 5 10 9 15 10 15 7 16 6 16 3 21 1 26-2 14-3 25-12 14-8 28-17 21-13 16-10 16-11 15-10 21-13 40-25 19-12 22-13 14-8 17-11 22-14 10-7 19-12 16-10 17-11 12-8 23-15 11-7 14-9 42-26 38-24 18-12 24-15 19-12 30-20 13-8 16-9 4 1 9 12 16 33 5 3 7-3 2-3h2l5-28 2-13 5-10 2-1 2-11 4-17 4-7 1-4 3-3 3-15 2-2 1-17-1-11-3-11 1-3 9 2 10 8 2 1v2l2 1-1 8-6-3-1 3h-2l-3 3-3 16 5 1 1 2h2l4-4h4v-4l5-3 2-9 6-11 3 1 5-3 4-3 3 1v6h2v6l-3 4-3 12v2l3 1 4-10 1-9v-13l-1-2v-7h-3z" fill="#A6CC61"/>
<path transform="translate(1198,456)" d="m0 0 5 2 4 8 3 3 1 5 12 8 1 4-3 5-4 4 1 5-4 7-6 8-5 2-8 5-5 3-4 1v2l-9 4-17 10-13 5-3 1v2l9-4 9-2 13-7 13-8 15-7 6-2 8-9 6-12h4l5-1v-2l10-2 3 1 10-3h3l10 7 3 5 2 6-1 10 4-7-1-7-6-9-7-9-1-6 3 1 3 5 5 5 10 15 2 4-2 4-16 14-10 5-3 1v2l-7 5-12 6-3 1v2l-8 6-10 6-3 1-1 4-13 6-3 1v2l-10 8-14 8-11 8-8 4-5 4-1 2-11 5-6 3-5 5-6 4-8 4-10 8-14 7-5 5-11 6-12 10-11 6-7 6-14 7h-2v2l-5 2v2l-15 8-14 10-8 5-8 6-16 9-8 6-12 7-8 6-11 6-9 8-12 5-11 9-12 6-10 8-10 6h-2l-2 4-8 5h-12l-3-2v-2h-2l-3-16-5-13-10-18-12-16-8-14-1-3v-10l3-5 3-7 2-3 4-17 5-10h2l2-5 6-3 6 2 5 6 8 7 4 5v2l4 2 8 9 5 5 10 7 3 2h5l8-7 14-7 10-8 10-5 10-8 10-5 16-11 6-3 10-7 10-5 5-3 5-4 16-8 11-9 10-5h2v-2l9-6 16-8 1-3 14-8 11-9 10-4 5-4h3v-2l14-3 9-5 4-2v-2l17-8 10-8 16-8 8-6 13-7 5-4 9-4h2v-2l6-5 3-7v-11l-7-21-4-6z" fill="#A6CC61"/>
<path transform="translate(1475,649)" d="m0 0 4 2 11 9 14 12 10 10 7 8 11 13 12 19 8 16 8 19 6 21 5 25 2 17v29l-2 17-7 31-6 20-10 22-10 16-12 16-12 13-19 19-17 13-18 11-25 12-16 5-23 6-16 2-14 1h-16l-19-2-25-6-17-6-31-14-15-10-13-10-12-11-18-18-13-18-10-17-11-23-7-19-5-16-3-22-1-10v-27l3-6 5-4 18-11 9-6 11-7 17-11 13-10h3l1 3v9l-6 24-2 14v31l5 23 8 21 10 18 9 12 12 13 11 9 14 10 21 11 21 6 13 2h30l19-3 18-6 19-9 14-10 13-11 9-10 10-15 8-16 6-14 4-15 3-25v-12l-2-22-3-15-4-13-10-21-16-21-6-10-2-5 1-13 4-20 5-15 5-16zm-315 189-3 1-2 16 1 15 10 31 3 12 14 28 10 15 4 7h2l1 4 12 14 13 12 7 6 14 11 14 8h2v2l25 10 12 6 6 2 32 4 13 1h19l21-2 25-4 9-3 16-8 10-3 6-4 5-3v-2l5-2 9-5 9-8 8-6 5-6 8-7 6-8 6-5 7-11 6-7 5-12 7-10 5-14 3-9 5-13 1-4 1-22-1-5-1 4-2 1-1 1h-9l-13 7-12-1-2-6v-3l-2-1 2-9-3 2-5 2v3h-2v2l-3 1-3 12-2 10-3 9-7 10-6 12-5 6-3 3-6 9-3 2v2h-2v2h-2l-6 7-9 6-8 7-13 6-12 7-14 3-18 3-12 3h-17l-20-4-26-4-9-5-8-5-12-6-21-16-6-8-8-7-7-11-8-12-4-11-4-6-6-13h-3l-3-11-4-3h-2v-2l-5-1-8 3-4 3-9-1-10-5-1-7h-4l1-12z" fill="#A6CC61"/>
<path transform="translate(774,482)" d="m0 0h395l10 3v4l-19 12-23 14-23 15-36 22-9 3-43 1h-47l-136-1-19-1-9 18-11 32-6 16-9 27-6 15-12 36-10 29-10 30-7 19-12 36-8 21-9 20-9 10-10 4-12 1-12-2-10-5-5-5-4-6 1-2 7 9 6 4 10 2h12l8-2 5-3 8-9 3-5 4-12 7-14 5-23 6-12 3-12 4-17 7-13 4-18 6-15 3-5 4-18 3-9 5-9 4-15 2-11 7-14 1-4h2v-7l3-13 4-9 3-6 2-11 1-12 4-9 5-6 5-3 10-2 29-1 18 1h141l26-1h10l12 2 1-2 5-1 8-4 7-6 7-3 10-7 3-3 7-4 4-2 1-2h3l2-4 11-8 2-1 1-4-2-4-13-2h-10l-15 1-3 1-9-1h-22l-18 3 3 1h29l21 2h19l7 2-2 6h-2l-1 4-5 5-9 5-7 7-1-2 3-6 10-6 5-5 2-3h-3l-1-2-5 1-2-1-32-3h-9l-9 1-30-3-21 1h-72l-17 1-61 2-11 2h-21l-8 3-13-1-9 7-6 7-2 4h-2l-2 5-3 1-4 4-4-2 1-3 3-3 2-5h2l2-4 5-6 4-6 1-1-3-1 1-3-2-1v-3l-5 3h-2l-2 5-4 12-6 9-4 10-2 10-5 9-5 5-2 1-2 11-3 7-5 9-3 7-6 22-2 2 2-11 6-21 13-40 14-38 6-18 4-5z" fill="#C1E276"/>
<path transform="translate(870,944)" d="m0 0h5l-3 3-5 3-4 4h-2l-2 4-5 4-10 5-6 9-10 4-6 4-5 6h-2v2l-10 4-7 7-16 8-10 7-11 4-8 3-9 6-15 3-34 2h-19l-34-2-12-3-13-7-18-6-1-3-4-1-10-6-8-4-7-7-5-3v-2l-3-1v-2l-4-2-6-7-5-5-9-11-6-10 1-4 4 1v2l6 2 7 4h8l3-2h6l5 3 6 2 7 6 10 2 16 6 5 4 11 4 8 3 11 3 21 4 14 1 5 1h19l14-1 20-4 31-12 20-6 6-2 12-2 17-4 15-7 12-6 9-6 9-1z" fill="#6E9A3F"/>
<path transform="translate(1475,649)" d="m0 0 4 2 11 9 14 12 10 10 7 8 11 13 12 19 8 16 8 19 6 21 5 25 2 17v29l-2 17-7 31-6 20-10 22-10 16-12 16-12 13-19 19-17 13-18 11-25 12-16 5-23 6-16 2-14 1h-16l-19-2-25-6-15-5 4-1 17 4 16 3 4 2 11 2h31l16-3 5-2 28-5 16-8 11-5 10-4 12-9 8-5 7-7 7-5h2l1-3 6-5 5-6h2l2-4 7-7 7-10 6-8 7-13 5-8 8-20 3-5 3-7 5-37v-8l-1-9v-20l-2-13-2-20-6-21-8-15-4-11-4-6v-2l-4-2-5-3-4-3 6 8v2h3l6 7 4 8-1 3-4-6-5-7-6-4-5-5-4-7-5-2v-2l-9 1-3 1h-2v2l-6-2-8-5 1 5h-3l1 2-2 1 3 6v2h-2l-1 3-3-6-3-4-1-10v-3h-2l-1-5h-2l1-4-4 2-2 7 3 5 3 3 4 8 6 7 5 9 1 5 4 9 5 13 3 12 1 10 3 14 1 5v20l-4 17-1-4 1-11v-12l-2-22-3-15-4-13-10-21-16-21-6-10-2-5 1-13 4-20 5-15 5-16z" fill="#C1E276"/>
<path transform="translate(1342,588)" d="m0 0 4 1 9 12 16 33 4 4h-6l-4-2-7-10-4-7-8-10-5-9-10 1-3 2h-3v2l-8 4-6 4h-2v2l-11 6-10 6-11 8h-4v2l-9 6-18 10-9 7-9 4-8 5-5 4-9 4-10 8-15 8h-2v2l-6 5-14 7-3 1v2l-10 6-8 4-10 8-14 7-7 6-6 3 9-3 4-3h2v-2l16-8 6-4 7-5 1 2-5 2v2l-7 5-10 4-11 8-11 5h-2v2h-2v2l-4 1v2l-10 5-7 3-3 1-2 5h-3v2l-8 4-9 6h-2v2l-15 8-11 8-13 7-7 6v2l-8 4h-3v2l-7 5-14 5-4 5-11 6-6 3-5 4h-2v2l-9 4-6 2v2l-10 7-14 7-8 7-14 7-8 7-14 7-9 7-12 5-5 5-8 5-8 4-9 7-12 6-3 1v2l-13 8-9 4-8 7-16 6-10 7-20 4-21 3-2 1h-18l-6-1-29-4-11-3-27-15-10-8-9-7v-2h-2v-2h-2l-7-8-1-3h-2v-2h-2l-8-13-3-5v-2h-2v-3h-2l-5-13-3-11-6-12-2-9-1-10v-37l3-15 8-18 4-16 7-9v3l-5 9-1 4 1-1 5-8 9-16 9-11 5-7 7-5 7-8 9-5 8-7 9-4 10-4 7-4 15-4 17-2h10l8 3 4 3-24 1-15 3-19 7-16 8-11 7-11 9-12 12-8 10-10 15-7 12-7 22-4 19-1 9v21l3 19 9 27 9 17 10 14 12 13 5 5 10 9 15 10 15 7 16 6 16 3 21 1 26-2 14-3 25-12 14-8 28-17 21-13 16-10 16-11 15-10 21-13 40-25 19-12 22-13 14-8 17-11 22-14 10-7 19-12 16-10 17-11 12-8 23-15 11-7 14-9 42-26 38-24 18-12 24-15 19-12 30-20 13-8z" fill="#A3C57D"/>
<path transform="translate(1494,430)" d="m0 0h8l5 1-2 16-14 55-8 30-7 29-16 58-6 27-17 61-4 14-7 28-7 24-5 20-9 27-3 4-5-1-4-6-7-16-8-13-9-16-15-24-18-30-6-11-7-9-5-3-6 2-19 11-14 9-23 14-15 10-20 12-16 10-11 8-19 12-20 12-11 7-21 14-29 17-21 13-18 12-23 14-20 13-22 14-17 11-22 14-21 13-15 10-24 15-17 11-19 12-21 13-19 12-27 16-30 14-20 6-19 4-10 1h-40l-18-2-20-5-9-3v-1l8 1 8 2 19 3 8 2 10 1h19l15-2 20-4 22-4 17-8 7-3 10-4 13-9 13-7 8-6 11-6 10-8 13-7 10-8 10-5 8-6 16-9 7-6 13-7 9-7 13-7 7-6 14-7 3-1v-2l9-6 13-8 11-7 10-6 8-6 7-2v-2l5-3 6-5 14-7 7-6 14-9 8-7 14-7 7-6 10-3 12-10 10-4 12-10h3v-2l10-6 7-6 12-6 8-7 15-8 8-6 5-3 7-2v-2l9-7 14-7 8-7 10-5 12-9 11-6 4-3h2v-2l8-4 15-5 5-3h5l9 7 5 5 5 6 5 12 9 14 9 16 5 7 6 12 6 10 8 16v2h2l4 9 2 6 7-1 2-5 5-11 4-9 2-17 2-15 6-17 4-14 4-23 3-7 2 1 3-8 5-30 3-10 4-9 3-14 3-20 6-15 3-12 5-25 6-12 3-10 4-24 6-13 1-5h2l2-10 2-13 2-5 3-11 2-6-5-9z" fill="#BDD7A0"/>
<path transform="translate(705,708)" d="m0 0h2l2 3-1 4-4 5 2 5-3 3-1 5h-2l-2 12-2 5 3-1-1 4h6l8-6 8-1 3-4 2-5 6-7 4-5 4-3 6-4h2v-6h1v17l-7 14-4 9-2 17-8 17-4 17-2 8-4 8-5 12-4 13-6 7h-2v2l-8 5h-16l-7-2-4-2-7-8-4-6-1-9 2-10 7-11 2-7 3-14 4-8 4-5 4-11 2-11 6-10 4-9 2-13 4-10 7-3z" fill="#88B050"/>
<path transform="translate(807,689)" d="m0 0 3 1-4 4-2 4-2 14h3v3l4 1 4 6 2 5 2 4h17l7-2 6 1 5 3 10 2h11l17-3h3l1-2 8-1 7-3 3-2 13-3 6-3 7-2h8l2 2 4-1 2-4 7 1v-2h2l1-3 1 4 9-7 11-6 2-3 2 1-2 4h-2l-1 3-8 3-6 5-3 5-9 5h-3v2h-3l-2 5-4 4-8 3-8 4-5 6-14 7-5 5-8 5h-4v2l-5 1-1 3-8 7-12 5-5 5-10 6-8 5h-2l-1 3-8-1-2-1v-2l-4-2-3-9-3-14-4-10-8-14v-3l-2-1-6-8-2-4h-2l-3-5-2-10 2-1 3-9h2l2-11 3-6z" fill="#88B050"/>
<path transform="translate(747,116)" d="m0 0h11l15 4 13 7 4 4 1 4-8 12-6 6-6-1-6-9-5-2h-13l-6 3-7 8-4 9v17l2 11 6 9 8 6 3 1h12l6-4 3-6-8-10 2-1 7 2 2 2 1-3-18-4-5-4-1-6 5-5 3-1 37 1 3 1 1 2v25l-3 9-7 9-7 7-12 6-10 2h-12l-14-3-12-6-8-9-7-14-3-14v-16l2-12 6-14 6-9 5-5 9-5 9-3zm24 75 1 2z" fill="#A2C47B"/>
<path transform="translate(844,118)" d="m0 0 31 1 13 3 8 4 4 5 2 5 1 7v9l-3 16-5 8-7 9 2 5 14 14 7 5 3 4-1 14-3 3-10-1-14-7-6-5-7-14v-2h-2v-2l-8-2-1 2-2 16-5 9-4 3-7 1-7-3-3-6v-17l1-23v-35l-1-17 3-7zm18 22-4 3v13l3 8 5 3 7-1 4-5 1-10-1-7-3-3-3-1z" fill="#A2C47B"/>
<path transform="translate(1011,118)" d="m0 0h22l21 3 13 5 9 7 6 7 5 11 2 9v20l-2 14-4 10-10 11-7 5-5 2-27 3-22 1-3-9v-95zm23 22-1 1 1 38v15l1 11h7l10-5 7-7 4-7 1-4v-20l-4-8-4-5-10-7-6-2z" fill="#A2C47B"/>
<path transform="translate(1247,993)" d="m0 0h6l10 4 3-2 10-1 10 1 15 2 19 4 29 3 11 1 15 1 5 1 10-1 25-2 15-5 10-2 21-4 4 2-2 7-8 5h-2l-2 4-8 7-3 2-10 2-8 4-7 5-4 2-33 3h-31l-26-2-17-2-9-6-13-5-9-4-3-2v-2l-5-2-2-4-7-1-5-3-2-5h-2z" fill="#6E9A3F"/>
<path transform="translate(466,1166)" d="m0 0h7l6 3 7 8 12 19 15 23 1-1 2-21 1-26 5-5h10l5 2 1 2 1 69v20l-7 3h-7l-10-4-5-6-8-14-9-10-7-13-6-3v47l-3 3h-11l-7-3-1-64v-24l5-4z" fill="#A2C47B"/>
<path transform="translate(533,1332)" d="m0 0 6 1 8 7 6 8 8 15 11 13 6 8 3 1v-18l-1-22 2-7 6-6h6l5 5 1 2 2 65 1 21-2 1h-19l-6-3-3-4-7-14-8-10-4-9-5-5-3 7-1 36-4 4-18-2-3-2 1-35 1-48 5-6z" fill="#A2C47B"/>
<path transform="translate(1552,1333)" d="m0 0 8 1 8 7 6 10 8 15 7 8 8 10 3 2v-44l6-8 7-1 5 3 2 3 1 59 2 19v8l-7 2-14-1-6-4-5-8-7-11-7-10-6-11-4-1-2 7v32l-2 5-4 2h-9l-7-2-4-4 1-13 1-14 1-52 4-6z" fill="#A2C47B"/>
<path transform="translate(1164,1165)" d="m0 0 13 1 1 1v81l-1 12-5 2h-13l-7-2-1-35-1-2-3-1h-18l-5 1-1 36-3 2-8 1h-12l-1-2v-93l1-1h20l2 1 2 28 1 7 6 2h20l3-34 4-4z" fill="#A2C47B"/>
<path transform="translate(351,1335)" d="m0 0h9l11 3 12 6 5 6 6 16 4 19v11l-3 8-7 9-7 7-12 6-5 1h-18l-16-4-6-4-5-5-6-9-5-12-1-12 2-11 5-13 6-9 8-7 10-4zm-2 21-9 3-6 7-3 11v16l4 7 5 5 5 4 12 2 9-2 2-2-1-10h-3l-1-4-4-4 2-2h-9l-2-3 1-5 9-4 11-4 6-3v-2l-10-8-11-2z" fill="#A2C47B"/>
<path transform="translate(1693,1335)" d="m0 0h16l15 5 10 6 3 4 1 6-2 1 3 3v2l4 9 4 15-1 7-8 16-8 10-8 5-12 3h-16l-14-3-9-6-8-9-4-8-2-9v-17l4-13 6-11 7-8 14-7zm-3 22-5 5-4 10-1 4v13l3 9 6 8 7 4 3 1h10l6-4 3-17v-6l-2 2-2 10v5l-10-8-4-8 1-7 6-4 13-3 3-5-1-5-11-3-6-1zm44 1 1 2zm2 1m2 11 1 2zm1 2 1 3zm1 3 1 2zm1 3 1 2z" fill="#A2C47B"/>
<path transform="translate(1314,1332)" d="m0 0h11l6 3 3 3 2 6v23l10 2 18 1 1-32 4-4 3-1h8l8 2 1 2 1 10v77l-4 2-6 1h-10l-5-3-2-27-1-9-18 1-5 3-2 6-1 25-8 3-5 1h-10l-2-5v-24l1-60z" fill="#A2C47B"/>
<path transform="translate(1147,788)" d="m0 0m-1 1m-653-41 1 3-1 4 2-2-2 12-3 12-8 20-2 27v21l1 16 3 12 5 12 5 20 5 12 5 11 7 14 12 17 8 10 7 9 8 7v2h2v2l3 1v2l4 2 10 8 3 2v2l5 2 15 9 6 4 20 8 12 6 24 4 21 2h28l22-2 25-4 18-9 16-6 10-7 14-7 7-6 15-8 9-7 11-6 9-7 15-8 7-7 10-4 10-8 13-7 4-2v-2l12-7 8-4 8-7 10-5 13-10 14-7v-2l6-4 9-5h3v-2l12-8 10-5 5-5 17-9 3-1v-2h2v-2l11-6 8-6 9-6h4v-2h3v-2l16-9 6-3 3-1v-2l5-4 18-9h2v-2l14-7 1 2-1 2h-2v2l-7 4-8 7-11 5-11 9-10 3-10 8-14 7-9 8-13 8-7 6-12 6-7 6h-3v2l-12 6-7 6-13 7-10 7-12 7-4 2v2l-8 5-12 6-7 6-10 5-14 10-8 4h-2l-1 3-9 6-14 8-10 7-6 3-12 9-13 7-8 7-12 6-9 7-13 7-12 8-14 5-16 8-12 3-24 4-12 3-11 1h-19l-16-2-12-3-14-2-6-2-11-2-25-12-18-11-15-11-11-9-18-18-12-16-9-15-15-29-10-30-4-21-1-9-1-27 1-22 3-23 5-19z" fill="#A3C47C"/>
<path transform="translate(244,1167)" d="m0 0h36l9 3 11 8 5 7 1 13-2 11-5 8-7 9 1 5 5 11 6 12-1 5-5 3h-15l-3-4-3-13-3-5-16-8 1 26-6 4h-10l-4-2-1-2v-85l2-4zm21 23-5 3-3 4 2 5 7 7 2 1h8l5-4 2-4v-6l-5-5-2-1z" fill="#A2C47A"/>
<path transform="translate(1516,1165)" d="m0 0h6l1 2 1 17v46l-3 10-7 10-7 7-6 3-4 1h-21l-10-3-8-6-6-9-4-10-2-18v-37l1-9 2-2 5-1h15l2 4 1 58 2 5 5 3 4 1h9l4-2 1-2 2-64 2-2z" fill="#A2C47B"/>
<path transform="translate(736,1335)" d="m0 0h30l13 2 13 5 5 5 2 8v20l-3 6-6 5-6 3h-2l6 12 9 13 2 4-1 4-4 4h-16l-5-2-3-7-3-13-2-4h-7l-2 24-4 2-7 1h-12l-2-1v-83l3-7zm23 21-5 2-1 1v6l6 11 1 1h8l10-5 3-3 1-6-3-3-9-3z" fill="#A2C47B"/>
<path transform="translate(1791,1166)" d="m0 0h12l15 2 8 4 12 11 3 7v11l-5 12-7 8-4 4h-2l6 11 10 22-3 3-5 1h-9l-6-4-9-14-7-10-3-5h-3l-3 8v22l-2 2-7 1-9-2-3-2v-16l2-22v-48l4-4 3-1zm6 24-6 5-1 6 5 5 7 4h9l5-3 2-3v-8l-5-5-3-1z" fill="#A2C47B"/>
<path transform="translate(1715,1165)" d="m0 0h10l9 3v62l-3 9-7 10-8 8-6 3-5 1h-18l-11-3-6-4-6-7-3-5-3-14v-59l7-3h15l2 3 1 62 2 6h9l10-2 5-5 1-13v-46l2-4z" fill="#A2C47B"/>
<path transform="translate(379,1166)" d="m0 0h10l5 3 4 10 6 16 7 20 5 17 8 24-2 4-6 2h-8l-7-2-7-13-1-1h-13l-12 2-7 7-4 5-5 2-9-1-6-3 2-5 3-9 4-15 10-26 9-27 7-8zm-3 36-3 4-1 3v10l3 7 6 1 3-7v-13l-3-5z" fill="#A2C47B"/>
<path transform="translate(152,1166)" d="m0 0h13l9 3 14 8 8 6 3 7-1 10-3 5-6 1-12-6-8-6-5-2h-14l-6 4-5 10-1 7 2 12 7 10 3 2h9l12-4 17-10 5-2 3 3 2 8v8l-3 5-10 8-10 6-8 2h-18l-13-4-9-7-6-8-4-11-2-12v-8l3-15 7-14 7-7 9-6z" fill="#A2C47B"/>
<path transform="translate(1135,482)" d="m0 0h34l10 3v4l-19 12-23 14-23 15-36 22-9 3-43 1h-47l-136-1-19-1-9 18-11 32-6 16-9 27-6 15-12 36-10 29-10 30-7 19-12 36-8 21-9 20-9 10-10 4-12 1-12-2-10-5-5-5-4-6 1-2 7 9 6 4 10 2h12l8-2 5-3 8-9 3-5 4-12 7-14 5-23 6-12 3-12 4-17 7-13 4-18 6-15 3-5 2-7h1l3-12 9-21 4-17 5-12 4-8 4-19 4-9 5-13 4-16 1-3h2l2-4 3-5h2l2-4 4-3 9-1h63l41 1h42l42-1 34-1 13-1 10-3 4-2 4-4 15-8 13-9 13-8 8-5 7-3h5l2-4 7-6 6-5v-6l-26-1z" fill="#BDD7A1"/>
<path transform="translate(585,1166)" d="m0 0h9l3 2 4 33 1 5h3l2-6 10-19 8-10 5-4 2-1h15l3 2-1 6-6 8-10 13-8 10-3 6 1 7 7 11 11 13 8 10 2 4-1 4-5 2h-12l-6-3-8-9-8-13-6-10h-3l-4 7v23l-3 5h-11l-8-2v-88l4-4z" fill="#A2C47B"/>
<path transform="translate(803,1165)" d="m0 0 7 2 2 3v59l-2 10-6 9-8 8-10 5-11 1-14-2-9-4-8-7-5-11-1-6v-60l4-4 7-2 9 1 1 1v58l3 5 5 4 7 2 7-1 5-5 2-7 1-12 1-40 5-5z" fill="#A2C47B"/>
<path transform="translate(873,1332)" d="m0 0 10 2 8 9 6 13 11 33 6 14 3 14v9l-5 2h-7l-8-5-9-8-7-2h-12l-8 4-9 9-6 2h-7l-5-5 1-9 6-16 11-29 12-31 5-5zm5 41-1 2 1 8h-2v-9l-7 1-2 3v13l1 2 8 1h9l2-3v-13l-2-4z" fill="#A2C47B"/>
<path transform="translate(1459,1334)" d="m0 0h13l6 3 5 10 10 30 8 26 7 14v6l-4 4-2 1h-7l-8-3-7-10-1-2-3-1h-22l-5 3-9 12-4 1-12-3-3-2 1-5 6-10 7-24 6-16 7-25 6-7zm3 35-5 6-1 8v10l2 3 6 1 6-2 1-6-2-15-3-5z" fill="#A2C47B"/>
<path transform="translate(1292,502)" d="m0 0h4l4 10v7l-10 9-23 14-32 21-25 16-17 11-22 14-21 13-15 10-38 24-33 22-18 11-20 13-25 16-22 14-20 13-30 18-19 12-25 16-26 17-15 9-17 9h-1l-1-8v-9l4 3h12l9-6 4-4 12-7 10-8 12-6 8-7 12-5 4-2 2-4 9-5 11-7 5-4 14-8 6-5 16-9 9-7 10-6 13-9 8-4h2v-2l5-2v-2l17-9 9-7 9-5 14-11 10-5 5-5 15-8 8-7 12-6 3-3h2l1-3 14-7h3l2-4 9-6 10-3 9-7 14-8 10-8 14-7 7-6 8-4 9-6 18-11 11-7 9-5 8-6 9-7 2-5v-8z" fill="#BDD7A0"/>
<path transform="translate(1227,1334)" d="m0 0h11l13 4 12 6 6 6 3 11-1 7-5 4h-8l-10-5-8-7-6-2h-11l-3 3-4 11-2 13 3 12 6 9 3 2 9-1 12-7 10-5h8l5 3 2 3v6l-7 9-10 7-8 3-7 1h-16l-10-2-8-4-5-4-6-9-4-10-1-4v-19l3-13 7-14 8-7 10-5z" fill="#A2C47B"/>
<path transform="translate(860,1167)" d="m0 0h29l12 4 9 6 5 6 1 4v25l-3 6-3 3-17 5-12 2h-5l-2 13-1 20-6 1h-15l-2-1-1-7 1-84 3-2zm20 21-6 4-2 4v5l4 5 2 1h9l10-5v-5l-7-6-7-3z" fill="#A2C47B"/>
<path transform="translate(1206,787)" d="m0 0 7 2 1 3v48l2 21 4 13 5 8 6 18 4 6 2 5-7-6 6 9 6 11h-2l-12-18-3-6-3-8-4-6-5-11v-2h-3l-3-6-1-5-5-3v-2l-9 1-8 5-9-1-10-5-2-4v-3l-4-1 1-11h-3l-1 22 2 13 8 24-1 3-4-9-4-13-3-7-2-1-1-10v-30l3-11 14-10 4-2h3v-2l6-3 5-4 11-5 3-1v-2l5-2z" fill="#A6CC61"/>
<path transform="translate(1127,119)" d="m0 0h56l3 14-1 4-3 2-26 1-5 1v22h12l11-2 5 5 3 5-1 5-7 6-24-1v15l-1 24-4 7-3 1h-8l-6-3-3-8v-87l1-10z" fill="#A2C47A"/>
<path transform="translate(669,1333)" d="m0 0h20l5 2 1 11 2 4v4l-6 3-25 1-2 1-1 7 2 5 6 1h17l3 4-1 8-3 2h-17l-4 2-1 3-1 16v4l11 1 7-1h10l5 3 3 7-9 5h-34l-17-1-1-1v-84l2-4 9-2z" fill="#A2C47B"/>
<path transform="translate(1830,1333)" d="m0 0 2 1-1 5-1 1 2 3 3 8-1 4-8 2h-25v7l2 7h21l5 2v10l-1 1-23 2-1 5v20h25l6 3 2 3v5l-5 4h-45l-9-1-1-1 1-88 1-1 16-1z" fill="#A2C47B"/>
<path transform="translate(447,1334)" d="m0 0h39l1 8v13l-3 1-27 2-5 1v8l2 3 22 1 5 3v9l-3 3-7 1h-11l-4 1-2 11v11l3 1 26 1 5 4 1 6-2 3-3 1h-47l-7-2v-39l-1-32v-14l1-2 8-2z" fill="#A2C47B"/>
<path transform="translate(1885,1167)" d="m0 0h46v21l-28 2-3 1-2 5v8l2 1 29 3v10l-7 2-20 2-4 1 1 12 1 8h30l2 7v11l-2 1h-22l-22-1-8-1-1-9v-25l1-56z" fill="#A2C47B"/>
<path transform="translate(1246,1166)" d="m0 0h22l1 1v21l-26 2h-8v15l21 1 9 2 3 4v6l-6 2-27 2v9l3 9 3 1 26 1 2 5 2 14-1 1h-20l-24-1-8-1-1-1-1-14v-77l3-1z" fill="#A2C47B"/>
<path transform="translate(1091,1333)" d="m0 0h12l2 5-8 2 8 7 3 6-8 3-29 2 2 11 1 1 21 1 4 1v12l-1 1h-23l-2 17v8l3 1h22l8 4 2 2-1 5-6 4h-38l-13-1v-30l1-52 1-7 1-1z" fill="#A2C47B"/>
<path transform="translate(1315,119)" d="m0 0h27l3 2 4 5 1 10-4 2-17 2h-5l-1 25v55l-5 6-7 1-9-2-3-4v-79l-26-3-2-3v-9l5-6 39-1z" fill="#A2C47B"/>
<path transform="translate(1559,848)" d="m0 0h1l1 11 1-10h1l1 14-4 33-3 10-7 14-5 13-6 10-9 16-7 8-6 8-7 8-4 4h-2l-1 3h-2l-2 4-10 8-8 7-5 4-11 7-6 5-14 5-19 10-24 5-10 2-11 3-7 1h-31l-13-3-11-3-21-4-11-3-29-13-15-10-13-10-12-11-18-18-13-18-10-17-11-23-7-19-5-16-1-11 1-5h1l2 11 4 9 2 7 2 6 2 2 3 11 14 28 10 15 3 5v2h2l3 5 11 13 12 11 7 6 14 11 16 9v2l4 1 21 8 12 6 6 2 32 4 13 1h19l21-2 25-4 9-3 16-8 10-3 6-4 2-2h3v-2l9-5 6-4 8-7 8-6 5-6 8-7 6-8 5-4 7-11 6-7 5-12 7-10 5-14h2l1-5 6-12 2-20z" fill="#A3C57C"/>
<path transform="translate(1395,1166)" d="m0 0h19l2 5-1 18h-34l-2 5-1 2v7l3 2 24 3 2 2v7l-3 3-3 1-22 2-1 38-6 1-14-2-4-2v-18l2-66 2-6 4-1z" fill="#A2C47B"/>
<path transform="translate(1560,1167)" d="m0 0h66v20l-18 4-4 5-1 2-1 63-1 1h-12l-10-2-2-1v-65l-9-4-12-4-2-5v-7l4-6z" fill="#A2C47B"/>
<path transform="translate(999,1167)" d="m0 0h66l1 3v12l-2 5-12 5-6 3h-2l1 4 1 14 1 47-10 2h-11l-4-1-1-2v-69l-24-1v-18z" fill="#A2C47A"/>
<path transform="translate(985,1334)" d="m0 0h32l1 1 1 9v10l-2 1-19 2-3 2v66l-3 1h-20l-3-3 1-30 1-27 2-7-24-4-3-2v-8l3-6 4-3 3-1z" fill="#A2C47B"/>
<path transform="translate(959,117)" d="m0 0h14l5 3 1 3v98h-3l1 3-4 4h-13l-5-3-3-10 2-93z" fill="#A3C47C"/>
<path transform="translate(1237,117)" d="m0 0h9v98l-2 12-7 1-14-3-2-3v-101l10-3z" fill="#A2C47B"/>
<path transform="translate(1532,705)" d="m0 0 4 4 12 20 10 23 6 18 6 27 3 23v29l-2 17-7 31-6 20-10 22-10 16-12 16-12 13-19 19-17 13-18 11-25 12-16 5-23 6-16 2-14 1h-16l-19-2-25-6-15-5 4-1 17 4 16 3 4 2 11 2h31l16-3 5-2 28-5 16-8 11-5 10-4 12-9 8-5 7-7 7-5h2l1-3 6-5 5-6h2l2-4 7-7 7-10 6-8 7-13 5-8 8-20 3-5 3-7 5-37v-8l-1-9v-39l-2-11-2-22-2-9-4-11-3-10-4-14-1-6-2-1-8-14z" fill="#BDD7A1"/>
<path transform="translate(1341,704)" d="m0 0h2l5 9 3 3 2-4 3 6 5 3 3 6v2h2l4 6 9 6v2h2v2h10l2-7 5-2 4-4 5-2 2-3 2 2 7-15 1-6 2-1v9l-2 7-5 14-2 9-3 27-4 10-3 9-5 10-2 1-2-3v-3l-3-1-5-10v-3h-2l-5-10-6-11-7-13-6-10v-2h-2l-5-10v-3h-2l-3-6-4-6-1-5z" fill="#88B050"/>
<path transform="translate(672,683)" d="m0 0h10l8 3 4 3-24 1-15 3-19 7-16 8-11 7-11 9-12 12-8 10-10 15-7 12-7 22-4 19-1 9v21l3 19 9 27 9 17 10 14 12 13 5 5 10 9 15 10 15 7 16 6 1 2-12-3-18-8-10-4-11-9-11-8-5-5-8-9-4-5v-2l-3-1-16-28-8-26-3-8-2-9v-33l2-13 4-9 6-25 5-8 9-16 9-11 5-7 7-5 7-8 9-5 8-7 9-4 10-4 7-4 15-4z" fill="#BDD7A0"/>
<path transform="translate(1693,1335)" d="m0 0h16l15 5 10 6 3 4 1 6-2 1 3 3v2l4 9 4 15-1 7-8 16-8 10-8 5-12 3h-16l-14-3-9-6-8-9-4-8-1-7 3 4 1 5h2v2h2l10 13 5 3 13 2h9l10-1 9-7 8-7 3-6 2-9v-7l-2-5-8-4-4 6-2 6-2-3-3 15-4-2-8-7-3-7 1-7 5-4 15-4 2-4v-4l-11-3-6-1h-15l-3 1-2 5-4 12v13l3 9 6 9-4-2-4-5-4-7-2-8v-11l4-12 2-4 7-3h14l23 4 3-9h-2l-5-5-8-3-9-2h-15l-10 3-8 5-6 10-4 8-2-1 7-14 7-8 14-7zm41 23 1 2zm2 1m2 11 1 2zm1 2 1 3zm1 3 1 2zm1 3 1 2z" fill="#BDD7A1"/>
<path transform="translate(351,1335)" d="m0 0h9l11 3 12 6 5 6 6 16 4 19v11l-3 8-7 9-7 7-12 6-5 1h-18l-16-4-6-4-5-5-6-9-5-12-1-12 2-11 5-13 6-9 8-7 10-4zm-5 4-11 2-12 6-3 3-4 8-5 11-1 5v14l2 8 4 7 5 9h2l1 4 5 2 1 3 4 1 10 2 19-1 8-3v-2l4-2 5-5 10-16 1-7-2-5-8-5-4-1-6 3-1 2-1 21-2-3v-3h-3l-1-4-4-4 2-2h-9l-2-3 1-5 9-4 11-4 6-3v-2l-7-6 7-1 3-5-1-7-1-2-16-5z" fill="#BDD7A1"/>
<path transform="translate(1516,1165)" d="m0 0h6l1 2 1 17v46l-3 10-7 10-7 7-6 3-4 1h-21l-10-3-8-6-6-9-4-10-2-18v-37l1-9 2-2 5-1h15l2 4 1 58 2 5 2 3-4-2-4-5-1-3-1-26-1-14-3-10-3-1-6 7-2 7-1 16 1 22 3 10 6 10 3 3v2l7 2 5 2h12l8-1 11-8 1-2h2l2-4 4-6 2-6 1-13-1-29-2-11-6 1-5 5h-2l-1 3-1 41-1 5h-1v-24l1-38 2-2z" fill="#BDD7A1"/>
<path transform="translate(1226,769)" d="m0 0h3l1 3v9l-6 24-2 14v31l5 23 8 21 10 18 9 12 12 13 11 9 14 10 21 11 17 5-1 2-19-5-14-7-9-4-14-10-10-8-10-10-4-5-4-4-10-15-5-8-5-16-6-10-3-11-2-21v-48l-1-3-6-2-1 3-5 1v2l-7 4-8 4-7 5h-3v2l-12 6-5 4-2 2-2 4-2 7v21l-2-1v-27l3-6 5-4 18-11 9-6 11-7 17-11z" fill="#BDD7A0"/>
<path transform="translate(152,1166)" d="m0 0h13l9 3 14 8 8 6 3 7-1 10-3 5-6 1-12-6-8-6-5-2h-14l-6 4-5 10-1 7 2 12 7 11-4-2-6-5-5-11v-10l3-10h2l2-4 8-5 7-1h10l10 4h7l3-3h2l-1-6-10-8-10-5h-14l-7 3h-3v2l-6 3h-2v2l-5 2-6 10-3 10-1 12v9l2 9 3 8 11 9 9 5 5 1h18l8-4 7-5 5-6-2-5-3-1h-7l-9 4-7 1 1-2 12-4 17-10 5-2 3 3 2 8v8l-3 5-10 8-10 6-8 2h-18l-13-4-9-7-6-8-4-11-2-12v-8l3-15 7-14 7-7 9-6z" fill="#BDD7A1"/>
<path transform="translate(1495,886)" d="m0 0 1 3-7 11-4 9-5 8-1 4-4 2-2 5-4 6-4 2v2h-2v2h-2l-2 4-6 5-8 6-7 6-13 6-12 7-14 3-18 3-12 3h-17l-20-4-26-4-9-5-8-5-12-6-21-16-6-7v-2l-4-2-6-7v-3l-7-11-5-7 1-3 2 4 6 5 4 5 5 8 6 5 7 8 10 9 11 8 7 5 15 6 10 5 17 4 17 2h30l19-3 18-6 19-9 14-10 13-11 9-10 10-15 9-18 2 1z" fill="#A3C47C"/>
<path transform="translate(803,1165)" d="m0 0 7 2 2 3v59l-2 10-6 9-8 8-10 5-11 1-14-2-9-4-8-7-5-11-1-6v-60l4-4 7-2 9 1 1 1v58l3 5 5 4 11 3v1h-7l-8-4-5-5-3-7-1-13-1-27-4-10h-4l-3 6-2 9v38l2 9 4 10 14 10 5 1h10l11-2 3-1v-2l5-2v-2l5-3 4-7 2-9v-41l-2-11-3-3-5 5-2 8-1 17-1 14v9h-2l-1 4-1-2 2-16 1-40 5-5z" fill="#BDD7A1"/>
<path transform="translate(999,1167)" d="m0 0h66l1 3v12l-2 5-12 5-6 3h-2l1 4 1 14 1 47-10 2h-11l-4-1-1-2v-65h1l1 56 2 5 6-1 4-5 3-17v-14l1-12 4-16 2-3h2l3-14-2-3h-26l-8 4 1 9 2 5 3 1v1l-23-1v-18z" fill="#BDD7A1"/>
<path transform="translate(748,732)" d="m0 0h1l1 9-8 16-5 23-4 10-3 5-5 23-8 16-4 12-7 9-6 6-5 2-6 1h-12l-10-2-8-6-5-7-3-3-1-4v-15l7-25 4-11 10-30 6-16 1 3-3 12-4 10 3-4 1-4 4-13 2 2-6 21-6 10-1 7-3 14-3 9-6 9-2 10 1 9 4 6 6 6v2l4 1 7 2h16l6-4h2v-2l5-5 3-5 2-7 5-14 4-6 2-5 4-20 6-14 3-6 1-7 2-4 2-7 4-9z" fill="#A3C57C"/>
<path transform="translate(1342,588)" d="m0 0 4 1 9 12 16 33 4 4h-6l-4-2-7-10-4-7-8-10-5-9-10 1-3 2h-3v2l-8 4-6 4h-2v2l-11 6-10 6-11 8h-4v2l-9 6-18 10-9 7-9 4-8 5-5 4-9 4-10 8-15 8h-2v2l-6 5-14 7-3 1v2l-10 6-8 4-10 8-14 7-7 6-10 5-11 8-8 4-2-1 15-10 26-17 11-7 14-9 42-26 38-24 18-12 24-15 19-12 30-20 13-8z" fill="#C1E276"/>
<path transform="translate(379,1166)" d="m0 0h10l5 3 4 10 6 16 7 20 5 17 8 24-2 4-6 2h-8l-7-2-7-13-1-1h-13l-12 2-7 7-4 5-5 2-9-1-6-3 2-5 3-9 4-15 10-26 9-27 7-8zm2 5-8 2v2l-3 1-6 8-7 22-4 14-3 3-4 9-2 15 1 5 3 2 4-1 6-5 8-5 13-4 11 3 5 2 2 4 7 6h5l5-6-7-30-5-12-4-8-5-17-4-6z" fill="#BDD7A1"/>
<path transform="translate(985,1334)" d="m0 0h32l1 1 1 9v10l-2 1-19 2-3 2v66l-3 1h-20l-3-3 1-30 2-1v18l2 9 6 2h5l4-5 1-27v-24l2-8 3-3h2l1-3h2v-4l-2-4-6-3h-15l-12 1-5 4-1 3 3 5 7 4-3 1-17-3-3-2v-8l3-6 4-3 3-1z" fill="#BDD7A1"/>
<path transform="translate(1560,1167)" d="m0 0h66v20l-18 4-4 5-1 2-1 63-1 1h-12l-10-2-2-1v-25l1-39h1l1 53 1 3 4 2h8l5-8v-37l1-12 6-15 2-6-2-4-5-2h-19l-9 4-2 4 3 10 3 4-1 2-11-4-8-3-2-5v-7l4-6z" fill="#BDD7A1"/>
<path transform="translate(447,1334)" d="m0 0h39l1 8v13l-3 1-27 2-5 1v8l1 3h-2l-2-5v-6l4-5 6-2 11-1-1-7-6-2-21-1-3 1-2 5-2 7-2 41v10l2 10v4h2l4 4h25l7-2 2-4-1-4-2-1h11l5 4 1 6-2 3-3 1h-47l-7-2v-39l-1-32v-14l1-2 8-2z" fill="#BDD7A1"/>
<path transform="translate(1395,1166)" d="m0 0h19l2 5-1 18h-34l-2 5-2 8h-1v-8l6-10 7-5 6-2-2-6-8-1-9-1-9 2-4 2-3 12-1 12v40l2 11 5 6h5l4-24 2-7 2 1-1 37-6 1-14-2-4-2v-18l2-66 2-6 4-1z" fill="#BDD7A1"/>
<path transform="translate(1715,1165)" d="m0 0h10l9 3v62l-3 9-7 10-8 8-6 3-5 1h-18l-11-3-6-4-6-7-3-5-3-14v-13h1l2 17 1 5h2l3 6 3 4v2l3 1 1 2 11 4h14l7-2 9-7h2l2-5 3-4 4-11 1-13v-11l-2-20-5-5-5-1h-2l-1 9-1 31h-1v-46l2-4z" fill="#BDD7A1"/>
<path transform="translate(873,1332)" d="m0 0 10 2 8 9 6 13 11 33 6 14 3 14v9l-5 2h-7l-8-5-9-8-7-2h-12l-8 4-9 9-6 2h-7l-5-5 1-9 6-16 11-29 12-31 5-5zm-4 8-7 7-4 13-6 12-8 24-5 10-2 6v6l4 4 6-1 8-5 3-3 6-3h16l9 3 5 4 8 5h6l3-4-1-10-5-11-4-10-4-17-5-10h-2l-2-9-5-8-5-3z" fill="#BDD7A1"/>
<path transform="translate(959,117)" d="m0 0h14l5 3 1 3v98h-3l1 3-4 4h-13l-5-3-3-10v-5l2 1 2 6 3 2 6-1 4-4 2-17v-33l-1-14v-10l-3-12-4-2-6 1-2 4h-1v-9z" fill="#BDD7A1"/>
<path transform="translate(669,1333)" d="m0 0h20l5 2 1 11 2 4v4l-6 3-25 1-2 1-1 7-1 3-2-4v-6l4-5 4-2h9l4-2 1-4-1-3-8-1-10-1h-9l-8 4-4 6v63l2 7 12 2h12l16-1 1-9h-3v-2h10l5 3 3 7-9 5h-34l-17-1-1-1v-84l2-4 9-2z" fill="#BDD7A1"/>
<path transform="translate(1011,118)" d="m0 0h22l21 3 13 5 9 7 6 7 5 11 2 9v20l-2 14-4 10-10 11-7 5-5 2-27 3-22 1-3-9v-10h1l2 9 6 3h30l12-2v-2l5-2 1-3h2v-2l8-7 5-9 2-13v-17l-3-12-3-6-8-9-9-7-6-3-16-2h-12l-10 3-5 2-1 19h-1v-25z" fill="#BDD7A1"/>
<path transform="translate(217,1372)" d="m0 0h49l5 2v12l-2 7-2 1h-51l-1-2v-18z" fill="#BDD7A1"/>
<path transform="translate(1164,1165)" d="m0 0 13 1 1 1v81l-1 12-5 2h-13l-7-2v-34h1l2 26 4 2 6-2 3-4 2-9v-29l-2-26-1-5h-3l-3-3-5 1-1 7-2 1 1-15 4-4z" fill="#BDD7A1"/>
<path transform="translate(860,1167)" d="m0 0h29l12 4 9 6 5 6 1 4v25l-3 6-3 3-17 5-12 2h-5l-2 13-1 20-6 1h-15l-2-1-1-7v-9l2-4 1 12 5 1 8-5 7-18 6-10 2-1 14-1 10-5 4-5 2-6v-14l-3-6v-2l-5-2-8-5-4-2-14-2h-10l-10 2-4 2-1 41h-1v-45l3-2z" fill="#BDD7A1"/>
<path transform="translate(844,118)" d="m0 0 31 1 13 3 8 4 4 5 2 5 1 7v9l-3 16-5 8-7 9 2 5 14 14 7 5 3 4-1 14-3 3-10-1-14-7-6-5-2-6 6 5 6 3h6l4-3v-6l-7-10-7-9-1-9 12-22 1-9-1-10-4-8v-2l-4-2-9-4-11-2h-25l-5 2-3 7-2-4 2-6 2-3z" fill="#BDD7A1"/>
<path transform="translate(1227,1334)" d="m0 0h11l13 4 12 6 6 6 3 11-1 7-5 4h-8l-10-5-8-7-6-2h-11l-3 3-4 11-2 13 3 12 6 10-4-2-5-5-5-7-3-9v-9l6-12 5-6 3-2h20l13 7 6-1 1-4-3-9-7-5-15-3h-9l-8 1-12 6-3 2-3 5-4 6-1-3 6-10 7-6 10-5z" fill="#BDD7A1"/>
<path transform="translate(1791,1166)" d="m0 0h12l15 2 8 4 12 11 3 7v11l-5 12-7 8-4 4h-2l6 11 10 22-3 3-5 1h-9l-6-4-7-11 1-2 7 9 7 1v-16l-3-8v-8l7-12 2-5 3-6v-6l-6-12-3-2v-2l-9-3-10-4-12-1h-13l-3 5-3 13-1 24h-1v-40l4-4 3-1z" fill="#BDD7A1"/>
<path transform="translate(1315,119)" d="m0 0h27l3 2 4 5 1 10-4 2-17 2h-5l-1 25v55l-5 6-7 1-9-2-3-4 1-4 2 2 10-1 5-2 1-8 1-26-1-23 2-16 5-5 10-5h2l-2-7-16-3-33 1-9 2-2 3 2 4 21 7v1l-18-1-7-1-2-3v-9l5-6 39-1z" fill="#BDD7A1"/>
<path transform="translate(1e3 625)" d="m0 0 2 1-11 8-4 4-7 4-3 3-11 5-11 7-4 3-8 4-8 6-9 5-8 5-9 7-8 4-10 8-16 8-5 5-7-1-16-12-7-9-5-4-6-8-11-10-1-2-5-1-5 2-3 5-3 3-4 11-3 13-4 6-3 8-1-3 7-19 7-25 3-5 8-4h7l26 26 8 10 11 12 4 5 4-2 7-6 21-14 32-19 14-9 26-16 25-16z" fill="#BDD7A0"/>
<path transform="translate(632,1166)" d="m0 0h15l3 2-1 6-6 8-10 13-8 10-3 6 1 7 7 11 11 13 8 10 2 4-1 4-5 2h-12l-6-3-8-9-2-5 5 5 1 3 12 2 1-5-5-13-9-12-4-10 1-8 4-11 4-5h2l2-4v-10l-6 1-6 7-7 7 2-6 9-13 7-6z" fill="#BDD7A1"/>
<path transform="translate(522,1166)" d="m0 0h10l5 2 1 2 1 69v20l-7 3h-7l-10-4-5-6-5-9 1-2 7 10 7 5 5-1 4-7 1-5v-45l-1-13-2-5v-4h-2l-2-3-4 3-1 6h-1v-11z" fill="#BDD7A1"/>
<path transform="translate(1372,1333)" d="m0 0h8l8 2 1 2 1 10v77l-4 2-6 1h-10l-5-3-1-9v-16h1l2 23 9-2 5-1 2-23-1-42-3-9-7-1-5 3-1 5h-1v-14l4-4z" fill="#BDD7A1"/>
<path transform="translate(244,1167)" d="m0 0h36l9 3 11 8 5 7 1 13-2 11-5 8-7 9 1 5 5 11 6 12-1 5-5 3h-15l-3-4-1-9 2 2 1 3h6l3-3-2-11-2-9v-8l1-3h2l2-6h2l2-4 3-7v-14l-3-5-10-8-8-4-11-2h-16l-7 2-3 1-1 15v13h-1l-1-6v-22l2-4z" fill="#BDD7A1"/>
<path transform="translate(1459,1334)" d="m0 0h13l6 3 5 10 10 30 8 26 7 14v6l-4 4-2 1h-7l-8-3-7-10h3l4 6 3 1 7-5-3-15-4-17-6-10-5-17-2-8-3-5-6-3h-8l-5 3h-3v2l-3 3-5 17-3 12-3 6-4 4 3-9 7-22 4-15 6-7z" fill="#BDD7A1"/>
<path transform="translate(533,1332)" d="m0 0 6 1 8 7 6 8 8 15 11 13 3 4-1 2-5-4-3-4v-2l-4-2v-2l-3-1v-2h-2l-8-14-5-5-7-4-6 1-3 1-1 5-2 9v16l-1 15v21l3 7 3 3 7 1 2-8 2-20 3-10 2-3h2l-2 8-1 36-4 4-18-2-3-2 1-35 1-48 5-6z" fill="#BDD7A1"/>
<path transform="translate(1127,119)" d="m0 0h56l3 14-1 4-3 2-31 1 2-2 3-1 14-1 4-4-2-6-4-3-31-1-9 2-1 11v80l2 4 7-1 6-5 2-6 1-16 4-10h1v15l-1 24-4 7-3 1h-8l-6-3-3-8v-87l1-10z" fill="#BDD7A1"/>
<path transform="translate(1237,117)" d="m0 0h9v98l-2 12-7 1-14-3-2-3v-19h1l1 12 5 3 7 1 5-5 1-10v-37l-1-33-1-7h-2v-2l-9 1-4 2-2 15h-1v-22l10-3z" fill="#BDD7A1"/>
<path transform="translate(747,116)" d="m0 0h11l15 4 13 7 4 4 1 4-8 12-6 6-6-1-6-9-5-2h-13l-6 3-7 8-4 9v17l2 11 6 9 3 4-4-2-6-7v-2h-2l-3-7-1-8v-12l2-9 5-8 5-5 6-4 8-1 11 1 10 5 4-1 2-3 1-8-1-4-12-3-13-3-11 1-7 1-6 3-5 2-5 4-7 12-1-3 6-10 5-5 7-5 12-4z" fill="#BDD7A1"/>
<path transform="translate(677,614)" d="m0 0h34l14 2v1l-19 3h-22l-32 1-14 2-18 8-20 7-18 10-9 4-5 5-11 8h-2v2l-5 4h-2v2h-2l-2 4-4 5-6 5-14 16v-3l9-12 9-10 11-11 11-9 15-11 18-10 16-8 15-6 19-5 22-3z" fill="#C0E07E"/>
<path transform="translate(1830,1333)" d="m0 0 2 1-1 5-1 1 2 3 3 8-1 4-8 2h-25v7l1 6-4-4 1-8 5-5 4-2h9l3-2v-6l-3-1h-11l-14-1-7 4h-2l-3 10v29l-1 14h-1v-62l1-1 16-1z" fill="#BDD7A1"/>
<path transform="translate(796,700)" d="m0 0h1v5l-6 10-1 4 2 5v3l4 2 5 9 4 4 8 13 5 10v2h2l4 15 2 7 2 4 4 4v2l11 2 7-6 10-5 5-2v-2l2 1-4 4-7 4v2l-5 2-2 4-8 5h-12l-3-2v-2h-2l-3-16-5-13-10-18-12-16-8-14-1-3v-10h2v4l3-6 3-7h2z" fill="#A2C47C"/>
<path transform="translate(588,1332)" d="m0 0h6l5 5 1 2 2 65 1 21-2 1h-19l-6-3-3-4-3-9 3 3 4 7 5 2h7l5-5 1-7v-46l-2-15-3-5-5 1-2 7v19l-2-4-1-22 2-7 5-5z" fill="#BDD7A1"/>
<path transform="translate(1552,1333)" d="m0 0 8 1 8 7 6 10 8 15 7 8-1 2-5-6-5-5-1-3h-2l-8-14-10-6-6 1-3 1-3 12-1 48v11l5 6h5l3-1 2-13 2-18 4-7 1 2-1 4v32l-2 5-4 2h-9l-7-2-4-4 1-13 1-14 1-52 4-6z" fill="#BDD7A1"/>
<path transform="translate(1608,1333)" d="m0 0 8 1 4 5 1 59 2 19v8l-7 2-14-1-6-4-3-4 1-2 5 5 5 2 6-1 3-5 1-6v-55l-2-7-2-6-5 3-3 5v14l-2-1v-22l6-8z" fill="#BDD7A1"/>
<path transform="translate(840,156)" d="m0 0 2 1 6 8 5 3 8 2h9l8-3h3v7l-6 11-2 1h-7l-8-3-7-2-6 12-2 10-3-1-2-21v-17z" fill="#88B050"/>
<path transform="translate(466,1166)" d="m0 0h7l6 3 7 8 12 19 11 17v2h-2l-6-10v-2l-4-2-7-8-6-11-9-7v-2h-3v-2l-6 3-3 5-2 19v44l2 9 1 3h6l3-4 5-35 2-2v46l-3 3h-11l-7-3-1-64v-24l5-4z" fill="#BDD7A1"/>
<path transform="translate(585,1166)" d="m0 0h9l3 2 3 27v4h-2l-5-13-3-11-4-2-4 5-2 8-1 19-1 24 1 16 3 6v3h7l4-6 2-13 4-8h3l-4 7v23l-3 5h-11l-8-2v-88l4-4z" fill="#BDD7A1"/>
<path transform="translate(1091,1333)" d="m0 0h12l2 5-8 2 8 7 3 6-8 3-29 2 1-3 8-4 9-1 1-5-1-2-15-1-9-1-9 5-2 3-2 20h-1v-26l1-7 1-1z" fill="#BDD7A1"/>
<path transform="translate(1885,1167)" d="m0 0h46v21l-28 2-3 1-2 5-1 6-2-2 1-8 4-6 4-4 5-3 1-5-1-4h-22l-5 5-3 9h-1v-14z" fill="#BDD7A1"/>
<path transform="translate(736,1335)" d="m0 0h30l13 2 13 5 5 5 2 8v20l-3 6-6 5-6 3h-2v-2h2l2-4 6-8 1-6v-10l-4-11-6-4-9-2h-11l-8-1h-10l-8 3-3 3-1 9v15l-2 4v-32l3-7z" fill="#BDD7A1"/>
<path transform="translate(769,166)" d="m0 0h26l3 1 1 2v25l-3 9-7 9-7 7-12 6-10 2h-12l-14-3-12-6-8-9-1-4 4 4 5 6 13 5 16 1 17-2 9-3v-2l6-5 6-7 4-13v-15l-2-6h-17l-5-1z" fill="#BDD7A1"/>
<path transform="translate(1246,1166)" d="m0 0h22l1 1v21l-26 2h-8l2-2 5-2 4-2 1-5 2-5-3-4-13-1-11 1-2 6-1 2-1 9h-1l-1-5v-14l3-1z" fill="#BDD7A1"/>
<path transform="translate(1877,1226)" d="m0 0 2 1v10l2 13 3 5 4 1 24-1 5-2-2-4-2-1v-2l-9-1-2-2h28l2 7v11l-2 1h-22l-22-1-8-1-1-9z" fill="#BDD7A1"/>
<path transform="translate(1342,588)" d="m0 0 4 1 9 12 16 33 1 2-4-1v-2l-4-2-9-14-8-11-3-7-3-3h-6l-14 7-12 8-8 6-10 5-5 4h-2v2l-11 6-12 8-17 10-8 6-6 3-2-1 15-10 21-13 19-12 30-20 13-8z" fill="#BDD7A1"/>
<path transform="translate(1216,1227)" d="m0 0h1l2 24 2 5h20l13-1v-6l-6-3-5-2-1-2h25l2 5 2 14-1 1h-20l-24-1-8-1-1-1-1-14z" fill="#BDD7A1"/>
<path transform="translate(1190,1375)" d="m0 0 2 2v14l2 9 6 12 3 1v2l3 1 2 3 8 3 8 1 18-1 10-4 8-10 4-6h-2l-1-2-11-1 4-3 3-1h8l5 3 2 3v6l-7 9-10 7-8 3-7 1h-16l-10-2-8-4-5-4-6-9-4-10-1-4z" fill="#BDD7A1"/>
<path transform="translate(1665,1166)" d="m0 0h15l2 3 1 66-3-3-2-5-1-21-1-20-3-10h-7l-6 5-2 4v-16z" fill="#BDD7A1"/>
<path transform="translate(1314,1332)" d="m0 0h11l6 3 3 3 2 6v23l10 2 18 1-4 2h-22l-7-5-3-10-2-6v-4l-4-2-4-1h-3l-2 8h-1v-14z" fill="#BDD7A1"/>
<path transform="translate(1131,149)" d="m0 0h2l2 3 1 4 3 7 1 3 9 3 1 3-3 3-9 2-2 9-1 3-2 18-3 2-2-4 1-49z" fill="#88B050"/>
<path transform="translate(1298,464)" d="m0 0 22 2 15 3 13 3 19 5 21 2 15 1 6 3 5 6-2 1-24-5-46-9-17-4-27-5z" fill="#BDD7A1"/>
<path transform="translate(1100,1166)" d="m0 0h20l2 1 2 28 1 7 6 2 16 1-2 2h-11l-10-3-5-5-4-9-2-9-2-2v-3l-7-2-2 2-2 14h-1v-23z" fill="#BDD7A1"/>
<path transform="translate(1411,763)" d="m0 0h3l-1 18-3 9-7 16-3 5-5 2-3-3-5-11v-2h-2l-8-15-7-14 2-3 7 10 2 5 4 8 4 6v2l4 1 3 5 7-14h2l2-6 2-7z" fill="#A2C479"/>
<path transform="translate(240,1372)" d="m0 0 16 1 3 1 1 5-4 5-12 1-23-2-4-3v-6l2-1z" fill="#A2C47B"/>
<path transform="translate(1345,1384)" d="m0 0 10 1 8 2v5l-1-4-18 1-5 3-2 6-1 25-8 3-5 1h-10l-2-5v-24h1l1 24h6l6-4 2-2 4-18 3-7 5-5z" fill="#BDD7A1"/>
<path transform="translate(1123,1221)" d="m0 0 1 2-1 36-3 2-8 1h-12l-1-2v-25h1l1 19h9v-2h2l3-12 3-11z" fill="#BDD7A1"/>
<path transform="translate(587,1379)" d="m0 0 2 2 1 18v10l-1 5-5 1-8-5-2-6v-9l7-6 5-9z" fill="#88B050"/>
<path transform="translate(1208,784)" d="m0 0 7 1 2 3v11l-1 10-1 21v10h-2v-48l-1-3-6-2-1 3-5 1v2l-7 4-8 4-7 5h-3v2l-12 6-5 4-2 2-2 4-2 7v21l-2-1v-27l3-6 5-4 18-11 9-6 11-7 6-4z" fill="#C1E278"/>
<path transform="translate(1075,577)" d="m0 0m-2 1 2 1-5 5-10 8-11 6-5 5-17 9-4 2v2l-15 8-11 9-7 2 5-5 6-4 5-5 19-13 20-13 25-15z" fill="#C0E07E"/>
<path transform="translate(1051,1381)" d="m0 0h1l1 38h2l1 2 4 2h25l7-2 2-5v-3h-6l-1-2h11l8 4 2 2-1 5-6 4h-38l-13-1v-30z" fill="#BDD7A1"/>
<path transform="translate(1e3 625)" d="m0 0 2 1-11 8-4 4-7 4-3 3-11 5-11 7-4 3-8 4-8 6-9 5-8 5-9 7-8 4-10 8-16 8-6 5 2-4 7-6 21-14 32-19 14-9 26-16 25-16z" fill="#C0DE85"/>
<path transform="translate(1778,1402)" d="m0 0h1l1 18 10 3h27l4-1 2-6 1-2-7-2v-1h12l6 3 2 3v5l-5 4h-45l-9-1-1-1v-18z" fill="#BDD7A1"/>
<path transform="translate(1459,727)" d="m0 0 2 1v2l4 2 1 3 3 1 5 7 1 3 2 1v2h2l7 14 8 19 2 8v4l2 1 4 19 1 5v20l-4 17-1-4 1-11v-12l-2-22-3-15-4-13-10-21-16-21-5-8z" fill="#BDD7A0"/>
<path transform="translate(1606,1381)" d="m0 0 2 1 1 9v19l-2 4-7-1-2-4-4-2-1-3v-8l5-4 1-2h3l2-4z" fill="#88B050"/>
<path transform="translate(748,732)" d="m0 0h1l1 9-8 16-5 23-4 10-4 4-2-1-2 6h-1l1-10 6-14 3-6 1-7 2-4 2-7 4-9z" fill="#A2C478"/>
<path transform="translate(861,197)" d="m0 0 1 2-2 16-5 9-4 3-7 1-7-3-3-6v-17h1l1 15 3 1h7l5-2 2-8h2l1-5 3-5z" fill="#BCD6A0"/>
<path transform="translate(493,748)" d="m0 0 1 3-1 4 2-2-2 12-3 12-8 20-2 27v21l1 22h-2l-1-9-1-27 1-22 3-23 5-19z" fill="#A9CA81"/>
<path transform="translate(1182,689)" d="m0 0h2v2l-5 2v2l-6 5-14 7-3 1v2l-10 6-8 4-10 8-14 7-7 6-10 5-11 8-8 4-2-1 15-10 26-17 11-7 14-9 21-13z" fill="#BDD79E"/>
<path transform="translate(781,1389)" d="m0 0 3 4 6 11 7 10 2 4-1 4-4 4h-16l-5-2-3-7v-5l2 3 2 4 3 2h9l3-2v-5l-5-7-3-11z" fill="#BDD7A1"/>
<path transform="translate(1147,788)" d="m0 0m-1 1m-1 1 1 2-1 2h-2v2l-7 4-8 7-11 5-11 9-10 2v-2l-5 1 4-3 8-4 3-1v-2l5-4 18-9h2v-2z" fill="#A2C478"/>
<path transform="translate(521,1214)" d="m0 0 2 2 1 9v16l-4 4-5-2-5-6-1-8 9-9z" fill="#88B050"/>
<path transform="translate(238,1202)" d="m0 0h1l1 48 1 6 6-2 5-6 4-9 1-7h1l1 26-6 4h-10l-4-2-1-2z" fill="#BDD7A1"/>
<path transform="translate(731,1385)" d="m0 0h1l1 18v13l1 2 5 2 7 1 4-4 3-13 2-3h2l-1 23-4 2-7 1h-12l-2-1z" fill="#BDD7A1"/>
<path transform="translate(1772,1220)" d="m0 0h1l1 32h2l1 2 6 1v-2h2l4-18 2-1v25l-2 2-7 1-9-2-3-2v-16z" fill="#BDD7A1"/>
<path transform="translate(471,1184)" d="m0 0 7 1 5 10-2 5h-2l-2 4-4 5-1 2-4-1-1-5v-12l2-8z" fill="#88B050"/>
<path transform="translate(1428,1408)" d="m0 0 1 4-1 2 1 5 4 2 5-1 3-3 1-3 5-3 17-3 13 2 1 2h-24l-5 3-9 12-4 1-12-3-3-2 1-5z" fill="#BDD7A1"/>
<path transform="translate(1504,852)" d="m0 0 1 3-4 10-2 15 1 3-3 10-8 11-6 12-2 3-3-1 3-3 10-20 4-6v-2l-6 9-1-3 3-9 4-13 2-12h3z" fill="#AED16F"/>
<path transform="translate(1145,719)" d="m0 0 1 2-5 2v2l-7 5-10 4-11 8-11 5h-2v2h-2v2l-4 1v2l-10 5-7 3-3 1-2 5h-3v2h-7v2l-3 1-2-2 9-5h2v-2l10-7 11-6 9-7 8-1 8-5h2v-2l16-8 6-4z" fill="#A2C47A"/>
<path transform="translate(535,1353)" d="m0 0h5l5 6 3 3-6 11-4 7h-3l-1-4-1-10 1-12z" fill="#88B050"/>
<path transform="translate(1557,1352)" d="m0 0 4 3v2l4 2 1 5-1 4-9 9h-3l-1-8v-10l2-5z" fill="#88B050"/>
<path transform="translate(1173,161)" d="m0 0 3 1 5 6 1 7-8 7-21-1 2-2 14-2 4-3v-7l-12-2 2-2z" fill="#BDD7A1"/>
<path transform="translate(341,1355)" d="m0 0h20l8 3-2 1-11-2h-7l-9 3-5 6-3 11v16l4 7 1 3h-2l-6-9-1-5v-16l3-10 2-4z" fill="#BDD7A1"/>
<path transform="translate(453,1370)" d="m0 0 23 1 5 3v9l-3 3-7 1h-15l1-2 12-3 2-4-1-3-7-2-10-1z" fill="#BDD7A1"/>
<path transform="translate(677,614)" d="m0 0h34l8 1-1 2-22 1h-26l-22 1 1-2z" fill="#BDD7A1"/>
<path transform="translate(1248,1206)" d="m0 0h8l9 2 3 4v6l-6 2-25 1 3-2 10-1 3-2 2-8-7-1z" fill="#BDD7A1"/>
<path transform="translate(786,725)" d="m0 0h2l4 5v2h2v3h2l5 7v2h2l5 8 5 12 5 9 4 11-1 4-5-13-10-18-12-16-8-14z" fill="#BDD7A1"/>
<path transform="translate(1075,1371)" d="m0 0h20l4 1v12l-1 1h-11l-8-1v-1l9-3 1-3-2-1v-2l-11-1z" fill="#BDD7A1"/>
<path transform="translate(891,766)" d="m0 0m-2 1h2l-2 6-8 6-4 2-5 5-12 9-6 1 2-2 7-4 3-1-1-1-12 7-7 4-3 3-2-1 5-5 16-9 3-3h2l2-4 12-5 7-6z" fill="#A6CC62"/>
<path transform="translate(1032,141)" d="m0 0h1l1 8 1 30v24l-2-3-2-6-1-37 1-14z" fill="#BDD7A1"/>
<path transform="translate(1913,1207)" d="m0 0 16 1v10l-7 2-23 2 1-2 12-2 3-3 2-4-1-2z" fill="#BDD7A1"/>
<path transform="translate(713,174)" d="m0 0 4 1 5 13 2 7 2 3v4l-3 1-4-4-6-11-2-9z" fill="#88B050"/>
<path transform="translate(1817,1371)" d="m0 0h7l5 2v10l-1 1-11 1h-9l3-2 8-4 1-4-17-2v-1z" fill="#BDD7A1"/>
<path transform="translate(1e3 625)" d="m0 0 2 1-11 8-4 4-7 4-3 3-11 5-11 7-4 3-8 4-8 6-5 2 2-4 26-16 24-15z" fill="#BFDD8A"/>
<path transform="translate(780,173)" d="m0 0h6l2 5v10l-4 8-1 1h-5l2-10-1-6-1-7z" fill="#88B050"/>
<path transform="translate(796,700)" d="m0 0h1v5l-6 10-1 4 2 5v3l4 2 5 9 4 4 3 7-1 3-4-6v-2h-2l-5-7v-2h-2v-3h-2l-4-5v-2l-3-1v-10h2v4l3-6 3-7h2z" fill="#A8CC6D"/>
<path transform="translate(1495,886)" d="m0 0 1 3-7 11-4 9-5 8-1 4-5 3-4-1 9-14 8-16 2 1z" fill="#A8C97D"/>
<path transform="translate(810,662)" d="m0 0 7 1 9 9 5 4 9 11 8 9v2h2v2l5 2 6 4 1 2-5-2-9-6-8-10-5-4-6-8-11-10-1-2-5-1-5 2-3 5-4 3 1-6 1-2h3v-2h2v-2z" fill="#C1E277"/>
<path transform="translate(1394,1207)" d="m0 0 11 1 2 2v7l-3 3-3 1-21 1 3-3 11-1 3-1v-8z" fill="#BDD7A1"/>
<path transform="translate(565,654)" d="m0 0 2 1-7 6-3 4h-2v2l-5 4h-2v2h-2l-2 4-4 5-6 5-14 16v-3l9-12 9-10 11-11 11-9z" fill="#C0DF83"/>
<path transform="translate(1093,642)" d="m0 0 3 1-9 5-8 7-11 6-8 7-14 8-9 7-12 6-7 6-2-1 4-4h2v-2l17-9 9-7 9-5 14-11 10-5 5-5z" fill="#C1E278"/>
<path transform="translate(748,732)" d="m0 0h1l1 9-8 16-4 16h-1v-8l-2-3 2-4 2-7 4-9z" fill="#A5CB66"/>
<path transform="translate(1559,848)" d="m0 0h1l1 11 1-10h1l1 14-3 23-3 3-1-1v-12z" fill="#A2C479"/>
<path transform="translate(1363,748)" d="m0 0 3 1 8 15 5 9 4 7v3h2l5 10-1 3-6-9-3-7-3-6-5-8-2 2-5-8-3-11z" fill="#A6CC62"/>
<path transform="translate(1371,765)" d="m0 0 4 4 4 6 2 5 4 8 4 6v2l4 1v5h-4l-2-5h-2l-8-15-7-14z" fill="#A2C576"/>
<path transform="translate(671,1372)" d="m0 0h17l3 4-1 8-3 2h-17l-4 1v-2l2-1 10-1 4-3 1-5-1-1-11-1z" fill="#BDD7A1"/>
<path transform="translate(758,165)" d="m0 0h9l1 2-8 2-2 6 5 5 1 2-8-1-5-4-1-6 5-5z" fill="#BDD7A1"/>
<path transform="translate(718,616)" d="m0 0h7v1l-19 3h-52l1-2 22-1h27z" fill="#C2E376"/>
<path transform="translate(1499,808)" d="m0 0 2 3 2 8v20l-4 17-1-4 1-11v-12l-1-19z" fill="#BDD7A0"/>
<path transform="translate(1074,758)" d="m0 0 2 1-6 5h-2v2l-15 8-4 3h-2v2l-8 5-8 4-9 7-6 3-2-1 13-9 22-14 16-10z" fill="#BDD7A1"/>
<path transform="translate(1180,800)" d="m0 0v3l-2 3h-3v2l-12 6-5 4-2 2-2 4-2 7v21l-2-1v-27l3-6 5-4 18-11z" fill="#BFDD8B"/>
<path transform="translate(805,744)" d="m0 0 4 4 9 17v2h2l3 10-1 6-2-3-5-11-7-14-2-8z" fill="#A2C577"/>
<path transform="translate(1226,661)" d="m0 0h3l-1 3-8 5-5 4-9 4-10 8-10 5h-2v-2l38-24z" fill="#BFDC8D"/>
<path transform="translate(871,1349)" d="m0 0h7l3 3v5h-2l-1 3-5 1-5-3v-7z" fill="#88B050"/>
<path transform="translate(1161,778)" d="m0 0m-2 1 2 1-2 4-9 7-5 2v-2l-12 6h-2v2l-5 2 5-6 8-4 5-1v-2l5-3 5-5z" fill="#A6CB65"/>
<path transform="translate(1021,196)" d="m0 0 4 1 5 11v4l-6 1-3-3-2-9z" fill="#88B050"/>
<path transform="translate(866,137)" d="m0 0 7 2 1 2h-12l-3 2v13l3 9-3-1-6-8v-8l4-6 3-3z" fill="#BDD7A1"/>
<path transform="translate(1191,759)" d="m0 0 3 3-8 5-10 6-5 5-8 1 4-4 8-7 8-4 5-3z" fill="#A4C86D"/>
<path transform="translate(879,1185)" d="m0 0h5v2l5 2 1 2-10-2-5 3-2 4v5l5 5h11l-3 3h-7l-6-4-4-5 1-8 7-6z" fill="#BDD7A1"/>
<path transform="translate(589,1207)" d="m0 0 4 1 2 5-1 4-1 3h-2l-1 9-3-1v-13z" fill="#88B050"/>
<path transform="translate(1514,820)" d="m0 0 7 2-2 1v13l-4 4h-2l-1-11 1-8z" fill="#88B050"/>
<path transform="translate(1202,786)" d="m0 0h4l-1 4-5 1v2l-7 4-8 4-5 4-2-1 5-6 10-6z" fill="#C1E07E"/>
<path transform="translate(384,1184)" d="m0 0 2 1v3h2l2 7v6l-5-1-4-10-2-4z" fill="#88B050"/>
<path transform="translate(1141,612)" d="m0 0 3 1-14 8-9 7-10 5-9 7-2-1 9-8 12-6 3-3h2l1-3z" fill="#C2E376"/>
<path transform="translate(1114,732)" d="m0 0 2 2-11 8-8 4-11 8-8 4-2-1 15-10z" fill="#BDD7A1"/>
<path transform="translate(1482,1394)" d="m0 0 5 2 1 10-5 1-3-4v-7z" fill="#88B050"/>
<path transform="translate(267,1185)" d="m0 0 5 1 6 4-2 1h-11l-5 3-2 5 6 8-5-2-3-4v-6l5-5 5-3z" fill="#BDD7A1"/>
<path transform="translate(1497,885)" d="m0 0h1l-1 8-8 11-6 12-2 3-3-1 3-3 10-20 4-6z" fill="#A6CC61"/>
<path transform="translate(1887,1206)" d="m0 0 4 1v2h3l-1 6h-2l-1 3-3 1-2-3v-8z" fill="#88B050"/>
<path transform="translate(1182,689)" d="m0 0h2v2l-5 2v2l-6 5-14 7-3-1 5-4 20-12z" fill="#BDD89C"/>
<path transform="translate(891,1389)" d="m0 0h2l3 9-1 6-5-1-1-1v-7z" fill="#88B050"/>
<path transform="translate(1223,1207)" d="m0 0 7 1 1 5-5 6-4-2z" fill="#88B050"/>
<path transform="translate(1093,642)" d="m0 0 3 1-9 5-8 7-11 6-8 7-2-1 10-9 13-7 5-5z" fill="#C2E376"/>
<path transform="translate(1368,1206)" d="m0 0 5 1 1 1v7l-4 4-3-3v-7z" fill="#88B050"/>
<path transform="translate(799,673)" d="m0 0 1 4-5 16-2 7-3 5-3 8-1-3 7-19 5-17z" fill="#BFDC8C"/>
<path transform="translate(891,766)" d="m0 0m-2 1h2l-2 6-8 6-9 4h-3l5-5 7-3 7-6z" fill="#A4C86D"/>
<path transform="translate(565,654)" d="m0 0 2 1-7 6-3 4h-2v2l-5 4h-2v2l-5 3h-3l9-9 11-9z" fill="#BFDB8F"/>
<path transform="translate(1390,600)" d="m0 0h2l-3 18-4 10-5 5 3-9 5-16z" fill="#BDD7A1"/>
<path transform="translate(373,1204)" d="m0 0 1 2-1 3v10l2 7 6 1-1 3-4 1-3-3-3-10v-8z" fill="#BDD7A1"/>
<path transform="translate(631,621)" d="m0 0 3 1-10 4-9 4-13 5-3-1 15-7z" fill="#BDD7A1"/>
<path transform="translate(1273,461)" d="m0 0 1 3 2-2 2 11 2 5h-3l-5-5-1-7z" fill="#BDD79F"/>
<path transform="translate(1805,1187)" d="m0 0 6 2-1 2h-13l-5 4-1 6 5 6-5-2-2-3v-7l5-6z" fill="#BDD7A1"/>
<path transform="translate(735,764)" d="m0 0h1v7l-4 10-3 5-4 13h-1l1-10 6-14 3-6z" fill="#A7CD61"/>
<path transform="translate(1055,589)" d="m0 0 2 1-13 9-8 5-10 6-2-1 10-7z" fill="#BDD7A1"/>
<path transform="translate(1504,852)" d="m0 0 1 3-4 10-3 17h-1l1-16h-1v-7h3z" fill="#A2C47B"/>
<path transform="translate(812,761)" d="m0 0h2l1 5 5 1 3 10-1 6-2-3-5-11-3-5z" fill="#A3C672"/>
<path transform="translate(776,663)" d="m0 0 1 3-9 21-2 10h-1v-7l3-12z" fill="#C1E278"/>
<path transform="translate(1155,816)" d="m0 0 1 2-4 13v21l-2-1v-27l3-6z" fill="#BDD89A"/>
<path transform="translate(1803,1385)" d="m0 0 2 1-1 5-1 20-2-3-1-5v-8l2-9z" fill="#BDD7A1"/>
<path transform="translate(442,1373)" d="m0 0 4 1 1 5-2 6-3 1-1-8z" fill="#88B050"/>
<path transform="translate(1074,162)" d="m0 0 2 1 2 9-2 7h-2l-2-14z" fill="#88B050"/>
<path transform="translate(1013,618)" d="m0 0m-2 1h2v2l-11 8-5 4-7 2 5-5z" fill="#C2E376"/>
<path transform="translate(643,618)" d="m0 0h10l1 2-2 1-14 2-5 1 2-4z" fill="#C1E17C"/>
<path transform="translate(1149,140)" d="m0 0 2 1v20l-2-3-3-8 2-9z" fill="#BDD7A1"/>
<path transform="translate(1305,131)" d="m0 0 5 2-1 5-2 2-5-1v-6z" fill="#88B050"/>
<path transform="translate(1153,837)" d="m0 0h1l1 29h-2v5h-1l-1-17h1z" fill="#A9CA82"/>
<path transform="translate(1501,829)" d="m0 0 2 2v8l-4 17-1-4 2-19z" fill="#C1E07E"/>
<path transform="translate(677,745)" d="m0 0 1 3-3 12-5 12-2 1 2-9z" fill="#BDD89A"/>
<path transform="translate(894,691)" d="m0 0v3l-12 9-8 5-5 4 2-4 7-6z" fill="#BEDA94"/>
<path transform="translate(560,753)" d="m0 0v3l-5 9-1 4 1 2-2 5-2-2v-6l4-9z" fill="#A2C479"/>
<path transform="translate(762,184)" d="m0 0 9 2 1 5-1 4-5-5z" fill="#BDD7A1"/>
<path transform="translate(752,1359)" d="m0 0h1l2 8 5 9 6 1-4 2-5-3-1-3h-2l-2-4-1-9z" fill="#BDD7A1"/>
<path transform="translate(1469,1360)" d="m0 0 5 1 2 7-1 3h-3l-4-8h2z" fill="#88B050"/>
<path transform="translate(1128,1219)" d="m0 0h17l4 2-2 1h-22v-2z" fill="#BDD7A1"/>
<path transform="translate(1226,661)" d="m0 0h3l-1 3-8 5-5 4-3-1 5-5z" fill="#C0DE86"/>
<path transform="translate(1097,745)" d="m0 0h2v2h-2l-1 3-7 5h-3l-1 2-4-1 9-6z" fill="#A6CB65"/>
<path transform="translate(796,700)" d="m0 0h1v5l-6 10-1 4 1 5-3-3-1-3 3-6 3-7h2z" fill="#A2C47B"/>
<path transform="translate(655,685)" d="m0 0h5l-3 2-12 3-9 4v-3l11-4z" fill="#C1E17C"/>
<path transform="translate(1037,138)" d="m0 0 10 2 6 4 3 3v2l-4-2-8-5-9-2z" fill="#BDD7A1"/>
<path transform="translate(454,1388)" d="m0 0h1l-1 11-1 10-2-3v-9l1-7z" fill="#BDD7A1"/>
<path transform="translate(1674,1343)" d="m0 0m-1 1v3l-4 5-7 14-2-1 7-14z" fill="#BDD79E"/>
<path transform="translate(1779,1209)" d="m0 0 2 1-1 2 3 1-1 11-3-2z" fill="#88B050"/>
<path transform="translate(1e3 625)" d="m0 0 2 1-11 8-4 4h-5l3-3z" fill="#BEDA95"/>
<path transform="translate(1073,760)" d="m0 0 2 1-5 6h-3l-1 3h-4v2l-3 1-2-2 9-5h2v-2z" fill="#A6CB66"/>
<path transform="translate(1369,464)" d="m0 0 12 3-2 4-8-1v-4h-2z" fill="#A7CD61"/>
<path transform="translate(748,732)" d="m0 0h1l-1 7-7 12-1-2 3-7z" fill="#A2C47B"/>
<path transform="translate(898,690)" d="m0 0h2v2l-9 7-6 1 4-4 5-3 1-2z" fill="#C0DF83"/>
<path transform="translate(914,679)" d="m0 0 2 1-9 6-4 2-3 3-4-1z" fill="#BDD79F"/>
<path transform="translate(888,146)" d="m0 0 4 2-1 5-4 1-2-4z" fill="#88B050"/>
<path transform="translate(1215,873)" d="m0 0 4 5 6 12-1 3-6-12-3-5z" fill="#A2C47B"/>
<path transform="translate(529,688)" d="m0 0 1 4-11 11 2-5z" fill="#BFDB8F"/>
<path transform="translate(1412,751)" d="m0 0h1l1 12-2 1-2-1v-6z" fill="#A5CA68"/>
<path transform="translate(679,749)" d="m0 0 2 2-4 15h-2l-1-3 3-7z" fill="#A2C47B"/>
<path transform="translate(1559,874)" d="m0 0h1l1 12-3 3-1-1v-5l1-2z" fill="#A4C770"/>
<path transform="translate(1504,852)" d="m0 0 1 3-3 5-2-2zm-7 7h2l1 3-2 4h-1z" fill="#AACA80"/>
<path transform="translate(1192,683)" d="m0 0 3 1-4 4-7 2v-2z" fill="#BFDD8A"/>
<path transform="translate(1158,601)" d="m0 0 2 1-10 6-5 4v-3l8-6z" fill="#C2E376"/>
<path transform="translate(1088,1386)" d="m0 0h4l1 3 4-2-1 4h-7z" fill="#BDD7A1"/>
<path transform="translate(1106,812)" d="m0 0 2 1-5 5-9 4-3-1 12-6 3-1z" fill="#A7CD61"/>
<path transform="translate(1163,776)" d="m0 0 2 1-1 1 2 1 1-2v3l-7 2-1-2-3-1z" fill="#A5CB66"/>
<path transform="translate(980,638)" d="m0 0 4 1-7 6-5 1 5-6z" fill="#C0E080"/>
<path transform="translate(1497,796)" d="m0 0 2 4 1 8-2 2-2-13z" fill="#BEDB92"/>
<path transform="translate(1288,700)" d="m0 0 4 1-9 6-5 3 2-4 5-2v-2z" fill="#C1E17A"/>
<path transform="translate(1163,811)" d="m0 0h2v2l-7 5-2 2-1-2 1-3z" fill="#C1E07E"/>
<path transform="translate(1161,778)" d="m0 0m-2 1 2 1-2 4-7 1 4-5z" fill="#A2C576"/>
<path transform="translate(1362,749)" d="m0 0 4 4 2 4v3h-3z" fill="#A2C479"/>
<path transform="translate(1244,1240)" d="m0 0h22v1h-22z" fill="#BDD7A1"/>
<path transform="translate(352,1389)" d="m0 0 5 1 2 5-5-2z" fill="#BDD7A1"/>
<path transform="translate(1911,1241)" d="m0 0h19v1h-19z" fill="#BDD7A1"/>
<path transform="translate(1709,1401)" d="m0 0 2 1v2h-2z" fill="#BDD7A1"/>
<path transform="translate(1376,627)" d="m0 0v3z" fill="#BDD7A1"/>
<path transform="translate(875,1387)" d="m0 0" fill="#BDD7A1"/>
<path transform="translate(1102,1341)" d="m0 0" fill="#DDEACF"/>
<path transform="translate(869,702)" d="m0 0 2 1z" fill="#BDD7A1"/>
<path transform="translate(1099,1340)" d="m0 0" fill="#BDD7A1"/>
<path transform="translate(868,703)" d="m0 0" fill="#BDD7A1"/>
<path transform="translate(871,701)" d="m0 0" fill="#BDD7A1"/>
</svg>
